<svg width="18" height="18" viewBox="0 0 18 18" fill="none" xmlns="http://www.w3.org/2000/svg">
<g id="&#208;&#186;&#208;&#176;&#208;&#187;&#208;&#181;&#208;&#189;&#208;&#180;&#208;&#176;&#209;&#128;&#209;&#140;">
<g id="Group">
<path id="Vector" d="M3.06439 17H14.9354C16.071 17 17 16.0069 17 14.7931V4.3103C17 3.09645 16.071 2.10335 14.9354 2.10335H13.6451V1.55167C13.6451 1.24822 13.4129 1 13.129 1C12.8451 1 12.6129 1.24823 12.6129 1.55167V2.10335H9.51599V1.55167C9.51599 1.24822 9.28378 1 8.99991 1C8.71604 1 8.48382 1.24823 8.48382 1.55167V2.10335H5.38708V1.55167C5.38708 1.24822 5.15486 1 4.87099 1C4.58712 1 4.3549 1.24823 4.3549 1.55167V2.10335H3.06457C1.92904 2.10335 1 3.09645 1 4.3103V14.7931C0.99982 16.0067 1.92885 16.9998 3.06439 16.9998V17ZM14.9354 15.8967H3.06439C2.49664 15.8967 2.03222 15.4002 2.03222 14.7933V6.7933H15.9678V14.7933C15.9678 15.4004 15.5034 15.8968 14.9356 15.8968L14.9354 15.8967ZM3.06439 3.20699H4.35472V3.75867C4.35472 4.06213 4.58694 4.31035 4.8708 4.31035C5.15469 4.31035 5.38689 4.06211 5.38689 3.75867V3.20699H8.48364V3.75867C8.48364 4.06213 8.71586 4.31035 8.99972 4.31035C9.28359 4.31035 9.51581 4.06211 9.51581 3.75867V3.20699H12.6126V3.75867C12.6126 4.06213 12.8448 4.31035 13.1286 4.31035C13.4125 4.31035 13.6447 4.06211 13.6447 3.75867V3.20699H14.9351C15.5028 3.20699 15.9672 3.70345 15.9672 4.31035V5.68966L2.03213 5.68985V4.31054C2.03213 3.70364 2.49655 3.20699 3.0643 3.20699L3.06439 3.20699Z" fill="#494646"/>
</g>
</g>
</svg>
